<svg xmlns="http://www.w3.org/2000/svg" viewBox="0 0 512 512">
  <defs>
    <linearGradient id="bg" x1="0%" y1="0%" x2="100%" y2="100%">
      <stop offset="0%" stop-color="#0077dd" />
      <stop offset="100%" stop-color="#0051a3" />
    </linearGradient>
  </defs>
  <rect width="512" height="512" rx="96" fill="url(#bg)" />
  <path d="M124 260a64 64 0 0 1 64-64h140a64 64 0 0 1 0 128H188a64 64 0 0 1-64-64Z" fill="#ffffff" opacity="0.92" transform="rotate(45 256 256)" />
  <path d="M273 279c-4-47 36-70 56-78 20-8 44-4 60 12 24 24 24 63 0 87l-92 92-92-92c-24-24-24-63 0-87 16-16 40-20 60-12 20 8 60 31 56 78Z" fill="#ffffff" opacity="0.95" />
  <text x="256" y="460" text-anchor="middle" font-family="Segoe UI, Tahoma, Geneva, Verdana, sans-serif" font-size="42" fill="#ffffff" font-weight="700">MyCare</text>
</svg>
